<?xml version="1.0" encoding="UTF-8" standalone="no"?>
<svg
   id="Layer_1"
   data-name="Layer 1"
   viewBox="0 0 156.54095 151.56474"
   version="1.1"
   sodipodi:docname="TeachAssist Logo.svg"
   xml:space="preserve"
   width="156.54095"
   height="151.56474"
   inkscape:version="1.4.2 (f4327f4, 2025-05-13)"
   xmlns:inkscape="http://www.inkscape.org/namespaces/inkscape"
   xmlns:sodipodi="http://sodipodi.sourceforge.net/DTD/sodipodi-0.dtd"
   xmlns="http://www.w3.org/2000/svg"
   xmlns:svg="http://www.w3.org/2000/svg"><defs
     id="defs2" /><sodipodi:namedview
     id="namedview2"
     pagecolor="#ffffff"
     bordercolor="#000000"
     borderopacity="0.25"
     inkscape:showpageshadow="2"
     inkscape:pageopacity="0.0"
     inkscape:pagecheckerboard="0"
     inkscape:deskcolor="#d1d1d1"
     inkscape:zoom="4.900029"
     inkscape:cx="104.2851"
     inkscape:cy="41.020165"
     inkscape:window-width="3840"
     inkscape:window-height="2036"
     inkscape:window-x="-12"
     inkscape:window-y="-12"
     inkscape:window-maximized="1"
     inkscape:current-layer="Layer_1" /><path
     d="M 106.92429,55.0423 H 48.784286 c -10.452464,0.0055 -18.924483,8.477536 -18.93,18.93 v 11.28 c 0,25.8414 20.948597,46.79 46.79,46.79 h 3.41 c 1.546397,0 2.8,-1.2536 2.8,-2.8 v -4.4 c 0,-1.5464 -1.253603,-2.8 -2.8,-2.8 h -3.41 c -20.318556,0 -36.79,-16.47144 -36.79,-36.79 v -11.28 c 0,-4.931903 3.998097,-8.93 8.93,-8.93 h 58.140004 c 4.9319,0 8.93,3.998097 8.93,8.93 v 12.07 c -0.006,2.74358 -0.34203,5.476478 -1,8.14 -0.36192,1.424161 0.44282,2.884924 1.84,3.34 l 4.2,1.370001 c 1.5328,0.50865 3.17596,-0.386369 3.58,-1.95 0.9094,-3.562207 1.37295,-7.223552 1.38,-10.9 V 73.9723 c -0.006,-10.452464 -8.47754,-18.924483 -18.93,-18.93 z"
     id="path1"
     fill="#0d9488"
     sodipodi:nodetypes="cccsssssssssssscccccccc" /><circle
     cx="61.854286"
     cy="89.042297"
     r="8"
     id="circle1"
     fill="#0d9488" /><circle
     cx="93.854286"
     cy="89.042297"
     r="8"
     id="circle2"
     fill="#0d9488" /><path
     d="m 125.58429,125.8423 9.06,3.57 a 1,1 0 0 1 0,1.86 l -9.06,3.57 a 12.61,12.61 0 0 0 -7.09,7.09 l -3.57,9 a 1,1 0 0 1 -1.86,0 l -3.57,-9 a 12.58,12.58 0 0 0 -7.09,-7.09 l -9.000004,-3.57 a 1,1 0 0 1 0,-1.86 l 9.000004,-3.57 a 12.58,12.58 0 0 0 7.09,-7.09 l 3.57,-9 a 1,1 0 0 1 1.86,0 l 3.57,9 a 12.61,12.61 0 0 0 7.09,7.09 z"
     id="path2"
     fill="#0d9488" /><path
     d="m 153.49085,24.584068 c 1.83049,-0.458239 3.05223,-1.679006 3.05011,-3.047277 -0.002,-1.368272 -1.2285,-2.586876 -3.0602,-3.042105 L 79.796442,0.1841175 c -0.987246,-0.24549 -2.064378,-0.24549 -3.051623,0 L 3.0605111,18.494686 C 1.2284891,18.949698 0.00245715,20.16852 5.1482592e-6,21.536791 -0.00289485,22.905062 1.2196201,24.12583 3.0501151,24.584068 l 29.1890729,7.308646 v 21.070361 c 0,3.477528 5.150861,6.41843 15.309523,8.74065 8.854641,2.024199 19.76542,3.139016 30.722073,3.139016 10.956639,0 21.867106,-1.114817 30.722076,-3.139016 10.15865,-2.32222 15.30953,-5.262905 15.30953,-8.74065 V 31.892714 l 12.0515,-3.017561 v 29.196651 c -5.35938,1.33468 -9.21054,4.937103 -9.21054,9.163145 0,4.225833 3.85116,7.828474 9.21054,9.163145 v 12.335751 c 0,1.783877 2.05338,3.230102 4.58617,3.230102 2.53278,0 4.58615,-1.446225 4.58615,-3.230102 V 76.398094 c 5.35939,-1.334671 9.21054,-4.937094 9.21054,-9.163145 0,-4.225836 -3.85115,-7.828464 -9.21054,-9.163145 v -31.49347 z m -12.55111,45.907687 c -2.54989,0 -4.62436,-1.461087 -4.62436,-3.257022 0,-1.795928 2.07447,-3.257014 4.62436,-3.257014 2.54993,0 4.62437,1.461086 4.62437,3.257014 0,1.795935 -2.07444,3.257022 -4.62437,3.257022 z M 78.270477,6.6552955 138.2174,21.552294 78.270477,36.562142 18.323557,21.552087 Z M 115.12975,52.476199 c -0.879,0.62405 -4.02573,2.118729 -11.12785,3.545788 -7.576656,1.522232 -16.715032,2.360548 -25.731423,2.360548 -9.016393,0 -18.154476,-0.838316 -25.731422,-2.360548 -7.102121,-1.427059 -10.248842,-2.92152 -11.127863,-3.545788 V 34.189306 l 35.322922,8.844447 c 0.496824,0.124461 1.016601,0.186704 1.536055,0.186704 0.51976,0 1.039228,-0.06228 1.536053,-0.186704 l 35.322928,-8.844447 v 18.286893 z"
     id="path1-0"
     fill="#0d9488"
     style="stroke-width:0.256592"
     sodipodi:nodetypes="cccccccccscssscccscssscscccssssscccccccsccccscccc" /></svg>
